<svg width="960" height="540" viewBox="0 0 960 540" fill="none" xmlns="http://www.w3.org/2000/svg">
  <rect width="960" height="540" rx="32" fill="url(#bg)"/>
  <circle cx="780" cy="120" r="120" fill="url(#orb1)" fill-opacity="0.45"/>
  <circle cx="170" cy="420" r="170" fill="url(#orb2)" fill-opacity="0.35"/>
  <rect x="210" y="120" width="540" height="300" rx="28" fill="white" fill-opacity="0.08" stroke="white" stroke-opacity="0.2"/>
  <rect x="260" y="170" width="260" height="22" rx="11" fill="white" fill-opacity="0.22"/>
  <rect x="260" y="208" width="420" height="14" rx="7" fill="white" fill-opacity="0.16"/>
  <rect x="260" y="234" width="360" height="14" rx="7" fill="white" fill-opacity="0.16"/>
  <rect x="260" y="260" width="300" height="14" rx="7" fill="white" fill-opacity="0.16"/>
  <rect x="260" y="300" width="120" height="40" rx="20" fill="#22D3EE" fill-opacity="0.85"/>
  <rect x="396" y="300" width="120" height="40" rx="20" fill="#A78BFA" fill-opacity="0.85"/>
  <rect x="532" y="300" width="120" height="40" rx="20" fill="#34D399" fill-opacity="0.85"/>
  <circle cx="720" cy="355" r="44" fill="#22D3EE" fill-opacity="0.28"/>
  <path d="M706 355h28M720 341v28" stroke="white" stroke-opacity="0.8" stroke-width="4" stroke-linecap="round"/>
  <defs>
    <linearGradient id="bg" x1="40" y1="24" x2="904" y2="516" gradientUnits="userSpaceOnUse">
      <stop stop-color="#4338CA"/>
      <stop offset="0.5" stop-color="#1E1B4B"/>
      <stop offset="1" stop-color="#020617"/>
    </linearGradient>
    <radialGradient id="orb1" cx="0" cy="0" r="1" gradientUnits="userSpaceOnUse" gradientTransform="translate(780 120) rotate(90) scale(120)">
      <stop stop-color="#22D3EE"/>
      <stop offset="1" stop-color="#22D3EE" stop-opacity="0"/>
    </radialGradient>
    <radialGradient id="orb2" cx="0" cy="0" r="1" gradientUnits="userSpaceOnUse" gradientTransform="translate(170 420) rotate(90) scale(170)">
      <stop stop-color="#A78BFA"/>
      <stop offset="1" stop-color="#A78BFA" stop-opacity="0"/>
    </radialGradient>
  </defs>
</svg>
