<svg xmlns="http://www.w3.org/2000/svg" viewBox="0 0 64 64" fill="none">
  <defs>
    <radialGradient id="a" cx="35%" cy="28%" r="68%">
      <stop offset="0%" stop-color="#93c5fd" />
      <stop offset="55%" stop-color="#3b82f6" />
      <stop offset="100%" stop-color="#1d4ed8" />
    </radialGradient>
  </defs>
  <path
    d="M32 37c-9 2-17 9-19 16 5 5 13 7 19 4 6 3 14 1 19-4-2-7-10-14-19-16z"
    fill="#1e40af"
  />
  <path d="M32 37c-7 1-14 7-17 13 4 4 10 5 15 4l2-17z" fill="#312e81" opacity="0.95" />
  <path d="M32 37c7 1 14 7 17 13-4 4-10 5-15 4l-2-17z" fill="#3b82f6" opacity="0.95" />
  <circle cx="32" cy="22" r="9.5" fill="url(#a)" />
</svg>
